<svg id="Layer_1" data-name="Layer 1" xmlns="http://www.w3.org/2000/svg" width="100mm" height="100mm" viewBox="0 0 283.465 283.465">
  <g>
    <g>
      <path d="M93.208,205.29s-.079,1.105-.2,3c-.608,9.007-2.243,35.994-1.341,48.112a22.781,22.781,0,0,0,.733,4.836s-19.119,2.649-32.8,4.656V206.631C69.513,205.527,83.965,204.309,93.208,205.29Z" fill="#b4d491"/>
      <path d="M229.339,216.146c.485,6.583-3.81,7.891-4.114,7.981a69.425,69.425,0,0,0-11.363.766c-5.118-.924-16.4,1.443-16.4,1.443-3.089-1.138-8.5-1.082-9.109-1.071a11.5,11.5,0,0,0,1.736-4.8c1.037-6.459-5.23-7.034-12.625-10.19-.485-.2-.97-.44-1.477-.688a70.4,70.4,0,0,1,18.363,1.33c6.866-.947,11.984-.034,17.721-1.093S228.832,209.314,229.339,216.146Z" fill="#fbd0a3"/>
      <path d="M224.334,238.962c5.051,3.855,5.806,7.97,3.021,11.34-2.716,3.247-9.976,5.231-19.085,5.592,1.658,5.061-2.141,8.962-6.82,10.788-6.076,2.379-25.8,5.546-44.843,3.81s-34.732-10.405-43.761-13.031c-5.9-1.714-15.343-1.454-21.171-1.06h-.011c-.9-12.118.733-39.105,1.341-48.112,5.569-.034,14.159-.62,20.573-3.394,10.349-4.475,26.785-8.849,37.517-7.643,10.032,1.128,17.878,8.759,24.89,12.333.507.248.992.485,1.477.688,7.4,3.156,13.662,3.731,12.625,10.19a11.5,11.5,0,0,1-1.736,4.8c.609-.011,6.02-.067,9.109,1.071,0,0,11.284-2.367,16.4-1.443a69.425,69.425,0,0,1,11.363-.766c.44.068,10.664,1.589,8.387,9.571C231.335,241.634,224.684,239.1,224.334,238.962Z" fill="#fbd0a3"/>
    </g>
    <g>
      <path d="M93.005,208.289c.124-1.894.2-3,.2-3-9.244-.981-23.7.237-33.617,1.341v45.715q15.9-2.838,31.807-5.529C91.42,233.48,92.528,215.354,93.005,208.289Z" fill="#b4d491"/>
      <path d="M91.4,246.817q-15.9,2.714-31.807,5.529v13.547c13.686-2.007,32.805-4.656,32.805-4.656a22.781,22.781,0,0,1-.733-4.836C91.47,253.788,91.394,250.482,91.4,246.817Z" fill="#96c678"/>
      <path d="M229.339,216.146c.485,6.583-3.81,7.891-4.114,7.981a69.425,69.425,0,0,0-11.363.766c-5.118-.924-16.4,1.443-16.4,1.443-3.089-1.138-8.5-1.082-9.109-1.071a11.5,11.5,0,0,0,1.736-4.8c1.037-6.459-5.23-7.034-12.625-10.19-.485-.2-.97-.44-1.477-.688a70.4,70.4,0,0,1,18.363,1.33c6.866-.947,11.984-.034,17.721-1.093S228.832,209.314,229.339,216.146Z" fill="#fbd0a3"/>
      <path d="M169.758,223.174c-6.364,1.825-14.351.8-17.88-3.081-7.228,5.988-16.261,10.066-26.281,9.751,2.254,3.258,5.576,4.379,8.9,5.488,11.273,3.382,20.291-12.4,31.564-4.509,2.254,1.127,4.509-2.255,6.764-2.255,4.509,1.128,7.891,3.382,12.4,2.255,1.127-1.127,2.254-3.382,3.382-4.509C181.97,230.741,175.332,227.558,169.758,223.174Z" fill="#f7b985"/>
      <path d="M225.225,224.127a69.425,69.425,0,0,0-11.363.766c-5.118-.924-16.4,1.443-16.4,1.443-3.089-1.138-8.5-1.082-9.109-1.071a11.5,11.5,0,0,0,1.736-4.8c1.037-6.459-5.23-7.034-12.625-10.19-.485-.2-.97-.44-1.477-.688-7.012-3.574-14.858-11.205-24.891-12.333-10.731-1.206-27.167,3.168-37.516,7.643-6.414,2.774-15,3.36-20.573,3.394-.492,7.293-1.658,26.375-1.6,39.807,38.833,4.756,75.838,18.972,113.875,16.419,2.629-2.093,4.157-5.069,2.994-8.621,9.109-.361,16.369-2.345,19.086-5.591,2.784-3.371,2.028-7.486-3.022-11.341.35.135,7,2.672,9.278-5.264C235.889,225.716,225.665,224.2,225.225,224.127Zm-40,6.7c-4.509,1.127-7.891-1.127-12.4-2.255-2.255,0-4.51,3.382-6.764,2.255-11.273-7.891-20.291,7.891-31.564,4.509-3.328-1.109-6.65-2.23-8.9-5.488-.784-.024-1.573-.069-2.369-.148.8.079,1.585.124,2.369.148-.037-.052-.079-.095-.114-.148.035.053.077.1.114.148,10.02.315,19.053-3.763,26.281-9.751-.161-.177-.326-.353-.468-.543.142.19.307.366.468.543.22-.181.444-.358.659-.543-.215.185-.439.362-.659.543,3.529,3.88,11.516,4.906,17.88,3.081-.1-.082-.209-.16-.311-.242.1.082.208.16.311.242.273-.079.549-.153.816-.242-.267.089-.543.163-.816.242,5.574,4.384,12.212,7.567,18.853,3.14C187.483,227.441,186.356,229.7,185.229,230.823Z" fill="#fbd0a3"/>
      <path d="M91.4,248.1c.012,3.155.091,6,.263,8.305h.011c5.829-.394,15.275-.654,21.171,1.06,9.029,2.626,24.721,11.295,43.761,13.031s38.767-1.432,44.844-3.81a14.86,14.86,0,0,0,3.825-2.167C167.239,267.068,130.234,252.852,91.4,248.1Z" fill="#f7b985"/>
    </g>
    <g>
      <path d="M59.593,206.631c9.92-1.1,24.372-2.322,33.615-1.341,0,0-.079,1.105-.2,3-.608,9.007-2.243,35.994-1.341,48.112a22.781,22.781,0,0,0,.733,4.836s-19.119,2.649-32.8,4.656" fill="none" stroke="#010101" stroke-linecap="round" stroke-linejoin="round" stroke-width="2"/>
      <path d="M208.27,255.894c1.658,5.061-2.141,8.962-6.82,10.788-6.076,2.379-25.8,5.546-44.843,3.81s-34.732-10.405-43.761-13.031c-5.9-1.714-15.343-1.454-21.171-1.06" fill="none" stroke="#010101" stroke-linecap="round" stroke-linejoin="round" stroke-width="2"/>
      <path d="M224.323,238.951l.011.011c5.051,3.855,5.806,7.97,3.021,11.34-2.716,3.247-9.976,5.231-19.085,5.592-.281.022-.563.022-.868.034-9.5.27-32.42,1.33-32.42,1.33" fill="none" stroke="#010101" stroke-linecap="round" stroke-linejoin="round" stroke-width="2"/>
      <path d="M225.225,224.127c.44.068,10.664,1.589,8.387,9.571-2.277,7.936-8.928,5.4-9.278,5.264" fill="none" stroke="#010101" stroke-linecap="round" stroke-linejoin="round" stroke-width="2"/>
      <path d="M175.985,209.585a70.4,70.4,0,0,1,18.363,1.33c6.866-.947,11.984-.034,17.721-1.093s16.763-.508,17.27,6.324c.485,6.583-3.81,7.891-4.114,7.981" fill="none" stroke="#010101" stroke-linecap="round" stroke-linejoin="round" stroke-width="2"/>
      <path d="M124.851,229.865c16.188,3.28,27.36-10.146,27.36-10.146s2.029,2.435,7.552,3.844,11.149-.789,11.149-.789-.146,1.567,7.057,4.261c5.028,1.872,8.443,1.082,10.382-1.77a11.5,11.5,0,0,0,1.736-4.8c1.037-6.459-5.23-7.034-12.625-10.19-.485-.2-.97-.44-1.477-.688-7.012-3.574-14.858-11.205-24.89-12.333-10.732-1.206-27.168,3.168-37.517,7.643-6.414,2.774-15,3.36-20.573,3.394" fill="none" stroke="#010101" stroke-linecap="round" stroke-linejoin="round" stroke-width="2"/>
      <path d="M126.069,238.793s10.856-2.627,13.054-4.464" fill="none" stroke="#010101" stroke-linecap="round" stroke-linejoin="round" stroke-width="2"/>
      <path d="M141.49,245.613s13.3-14.6,15.015-18.5" fill="none" stroke="#010101" stroke-linecap="round" stroke-linejoin="round" stroke-width="2"/>
      <path d="M168.646,227.768s-5.309,13.516-14.6,21.261" fill="none" stroke="#010101" stroke-linecap="round" stroke-linejoin="round" stroke-width="2"/>
      <path d="M224.323,238.951s-12.084,1.15-15.376,2.66c0,0-13.28-.53-15.85.361,0,0-9.9-.451-13.967-.372" fill="none" stroke="#010101" stroke-linecap="round" stroke-linejoin="round" stroke-width="2"/>
      <path d="M188.3,225.265h.056c.609-.011,6.02-.067,9.109,1.071,0,0,11.284-2.367,16.4-1.443a69.425,69.425,0,0,1,11.363-.766" fill="none" stroke="#010101" stroke-linecap="round" stroke-linejoin="round" stroke-width="2"/>
    </g>
  </g>
  <g>
    <path d="M93.2,69.136a21.488,21.488,0,0,1,.44,3.01c.2,3.743-28.735,7.474-34.044,7.452V25.882c2.536.136,4.667.226,6.1.271,7.835.248,22.884,2.288,25.128,3.021,0,0,.124,1.916.281,4.8a2.794,2.794,0,0,0,.012.3c.214,4.915.484,12.467.225,18.273-.316,7.124,1.037,12.423,1.815,16.289C93.163,68.945,93.186,69.035,93.2,69.136Z" fill="#b4d491"/>
    <path d="M155.468,73.4a6.32,6.32,0,0,1-.236,6.4c-3.236,4.746-6.471,4.34-10.247,2.852-1.184-.462-2.931-1.149-4.859-1.961-4.227-1.792-9.255-4.2-10.766-6.279-2.2-3.021-2.784-5.512-1.4-6.989.653-.7,2.9-.981,5.084-1.082,4.272,3.438,13.121,6.7,17.98,7.372A11.745,11.745,0,0,0,155.468,73.4Z" fill="#fbd0a3"/>
    <path d="M169.458,38.068c5.14,3.72,8.207,11.623.485,17.236a31.648,31.648,0,0,1-4.464,2.762c-6,2.943-9.222,1.173-13.2,1.421-4.858.293-14.485-5.31-14.485-5.31a6.8,6.8,0,0,1-1.962-1.555c-1.589-1.815-2.446-4.645-1.759-8.207.553-2.852,3.8-4.475,6.37-5.321,2.795,2.074,10.709,8.545,17.45,6.211C162.773,43.626,166.989,40.965,169.458,38.068Z" fill="#fbd0a3"/>
    <path d="M165.479,58.066c.315,3.021.473,6.742-.361,8.692-1.15,2.649-5.355,5.6-9.65,6.639a11.745,11.745,0,0,1-4.441.316c-4.859-.676-13.708-3.934-17.98-7.372a10.628,10.628,0,0,1-1.252-1.173c-3.494-3.844-4.092-5.715-1.995-8.86,1.15-1.725,3.844-2.942,6.031-3.686a6.8,6.8,0,0,0,1.962,1.555s9.627,5.6,14.485,5.31C156.257,59.239,159.482,61.009,165.479,58.066Z" fill="#fbd0a3"/>
    <path d="M166.3,17.236c4.024,1.612,5.625,11.217,5.444,15.816a8.492,8.492,0,0,1-2.288,5.016c-2.469,2.9-6.685,5.558-11.566,7.237-6.741,2.334-14.655-4.137-17.45-6.211a6.61,6.61,0,0,0-.812-.564c-1.15-.608-1.567-5.94,1.905-8.251,7.869,5.963,19.232,5.05,21.7,1.352,2.807-4.193-1.7-6.684-3.539-9.2a57.763,57.763,0,0,0-6.234-6.64C157.114,15.861,163.517,16.12,166.3,17.236Z" fill="#fbd0a3"/>
    <path d="M141.535,30.279c-3.472,2.311-3.055,7.643-1.905,8.251a6.61,6.61,0,0,1,.812.564c-2.571.846-5.817,2.469-6.37,5.321-.687,3.562.17,6.392,1.759,8.207-2.187.744-4.881,1.961-6.031,3.686-2.1,3.145-1.5,5.016,1.995,8.86a10.628,10.628,0,0,0,1.252,1.173c-2.187.1-4.431.383-5.084,1.082-1.387,1.477-.8,3.968,1.4,6.989,1.511,2.074,6.539,4.487,10.766,6.279-1.195.372-2.615.767-4.272,1.15-9.233,2.108-17.688-3.055-20.72-4.769s-12.5-8.826-12.5-8.826l-9.435.89c-.011-.1-.034-.191-.045-.293-.778-3.866-2.131-9.165-1.815-16.289.259-5.806-.011-13.358-.225-18.273,3.945-.034,8.24-.023,9.683-.553.665-3.675,3.607-7.429,7.384-11.013,5.862-5.58,18.25-11.375,22.128-12.818s15.4,2.954,17.462,2.289c.981-.3,3.314,1.431,5.693,3.607a57.763,57.763,0,0,1,6.234,6.64c1.837,2.514,6.346,5,3.539,9.2C160.767,35.329,149.4,36.242,141.535,30.279Z" fill="#fbd0a3"/>
    <path d="M91.337,52.554c.259-5.806-.011-13.358-.226-18.273a3.047,3.047,0,0,1-.011-.3c-.158-2.886-.281-4.8-.281-4.8-2.244-.733-17.293-2.773-25.128-3.021-1.431-.045-3.562-.135-6.1-.271V68.747c10.78-2.108,21.64-3.867,32.385-5.958A49.1,49.1,0,0,1,91.337,52.554Z" fill="#b4d491"/>
    <path d="M93.152,68.843c-.345-1.718-.8-3.737-1.175-6.054-10.745,2.091-21.605,3.85-32.385,5.958V79.6c5.31.023,34.248-3.708,34.045-7.451a21.488,21.488,0,0,0-.44-3.01C93.186,69.035,93.163,68.945,93.152,68.843Z" fill="#96c678"/>
    <path d="M155.468,73.4a6.32,6.32,0,0,1-.236,6.4c-3.236,4.746-6.471,4.34-10.247,2.852-1.184-.462-2.931-1.149-4.859-1.961-4.227-1.792-9.255-4.2-10.766-6.279-2.2-3.021-2.784-5.512-1.4-6.989.653-.7,2.9-.981,5.084-1.082,4.272,3.438,13.121,6.7,17.98,7.372A11.745,11.745,0,0,0,155.468,73.4Z" fill="#fbd0a3"/>
    <path d="M169.458,38.068c5.14,3.72,8.207,11.623.485,17.236a31.648,31.648,0,0,1-4.464,2.762c-6,2.943-9.222,1.173-13.2,1.421-4.858.293-14.485-5.31-14.485-5.31a6.8,6.8,0,0,1-1.962-1.555c-1.589-1.815-2.446-4.645-1.759-8.207.553-2.852,3.8-4.475,6.37-5.321,2.795,2.074,10.709,8.545,17.45,6.211C162.773,43.626,166.989,40.965,169.458,38.068Z" fill="#fbd0a3"/>
    <path d="M165.479,58.066c.315,3.021.473,6.742-.361,8.692-1.15,2.649-5.355,5.6-9.65,6.639a11.745,11.745,0,0,1-4.441.316c-4.859-.676-13.708-3.934-17.98-7.372a10.628,10.628,0,0,1-1.252-1.173c-3.494-3.844-4.092-5.715-1.995-8.86,1.15-1.725,3.844-2.942,6.031-3.686a6.8,6.8,0,0,0,1.962,1.555s9.627,5.6,14.485,5.31C156.257,59.239,159.482,61.009,165.479,58.066Z" fill="#fbd0a3"/>
    <path d="M166.3,17.236c4.024,1.612,5.625,11.217,5.444,15.816a8.492,8.492,0,0,1-2.288,5.016c-2.469,2.9-6.685,5.558-11.566,7.237-6.741,2.334-14.655-4.137-17.45-6.211a6.61,6.61,0,0,0-.812-.564c-1.15-.608-1.567-5.94,1.905-8.251,7.869,5.963,19.232,5.05,21.7,1.352,2.807-4.193-1.7-6.684-3.539-9.2a57.763,57.763,0,0,0-6.234-6.64C157.114,15.861,163.517,16.12,166.3,17.236Z" fill="#fbd0a3"/>
    <path d="M159.7,22.433a57.763,57.763,0,0,0-6.234-6.64c-2.379-2.175-4.712-3.912-5.693-3.607-2.063.665-13.584-3.732-17.461-2.289s-16.267,7.238-22.129,12.818C104.4,26.3,101.46,30.053,100.8,33.728c-1.443.53-5.738.519-9.684.553.215,4.915.485,12.467.226,18.273a48.38,48.38,0,0,0,.434,8.866c6.606-.474,12.893-1.081,17.93,1.437a105.427,105.427,0,0,0,18.14,8.988c-.833-1.857-.847-3.391.122-4.422.654-.7,2.9-.981,5.084-1.082a10.628,10.628,0,0,1-1.252-1.173c-3.494-3.844-4.092-5.715-1.995-8.86,1.15-1.725,3.844-2.942,6.031-3.686-1.589-1.815-2.446-4.645-1.758-8.207a6.342,6.342,0,0,1,3.467-4.068c-4.635-3.6-8.2-8.784-10.93-13.563,4.057,3.043,9.934,2.443,14.357,3.933a5.519,5.519,0,0,1,.568-.438c7.868,5.963,19.231,5.05,21.7,1.352C166.042,27.438,161.533,24.947,159.7,22.433Z" fill="#fbd0a3"/>
    <path d="M137.54,40.347a16.618,16.618,0,0,1,2.9-1.253,6.61,6.61,0,0,0-.812-.564c-1.082-.573-1.513-5.33,1.337-7.813-4.423-1.49-10.3-.89-14.357-3.933C129.341,31.563,132.905,36.744,137.54,40.347Z" fill="#f7b985"/>
    <path d="M129.36,74.412a14.527,14.527,0,0,1-1.519-2.567,105.427,105.427,0,0,1-18.14-8.988c-5.037-2.518-11.324-1.911-17.93-1.437.4,2.911.969,5.375,1.381,7.423.011.1.034.192.045.293l9.435-.89s9.47,7.1,12.5,8.826,11.487,6.877,20.72,4.769c1.657-.383,3.077-.778,4.272-1.15C135.9,78.9,130.871,76.486,129.36,74.412Z" fill="#f7b985"/>
    <path d="M59.593,25.882c2.536.136,4.667.226,6.1.271,7.835.248,22.884,2.288,25.128,3.021,0,0,.124,1.916.281,4.8a2.794,2.794,0,0,0,.012.3c.214,4.915.484,12.467.225,18.273-.316,7.124,1.037,12.423,1.815,16.289.011.1.034.192.045.293a21.488,21.488,0,0,1,.44,3.01c.2,3.743-28.735,7.474-34.044,7.452" fill="none" stroke="#010101" stroke-linecap="round" stroke-linejoin="round" stroke-width="2"/>
    <path d="M93.2,69.136l9.435-.89s9.47,7.1,12.5,8.826,11.487,6.877,20.72,4.769c1.657-.383,3.077-.778,4.272-1.15" fill="none" stroke="#010101" stroke-linecap="round" stroke-linejoin="round" stroke-width="2"/>
    <path d="M91.112,34.281c3.945-.034,8.24-.023,9.683-.553" fill="none" stroke="#010101" stroke-linecap="round" stroke-linejoin="round" stroke-width="2"/>
    <path d="M138.593,27.494a17.923,17.923,0,0,0,2.378,2.334c.181.158.372.3.564.451,7.869,5.963,19.232,5.05,21.7,1.352,2.807-4.193-1.7-6.684-3.539-9.2a57.763,57.763,0,0,0-6.234-6.64c-2.379-2.176-4.712-3.912-5.693-3.607-2.063.665-13.584-3.732-17.462-2.289s-16.266,7.238-22.128,12.818C104.4,26.3,101.46,30.053,100.8,33.728a7.957,7.957,0,0,0,1.229,6.02c3.6,5.456,20.246,7.181,20.246,7.181" fill="none" stroke="#010101" stroke-linecap="round" stroke-linejoin="round" stroke-width="2"/>
    <path d="M125.178,25.567c1.657,1.95,3.709,2.547,8.6,4.283a12.39,12.39,0,0,0,7.192-.022" fill="none" stroke="#010101" stroke-linecap="round" stroke-linejoin="round" stroke-width="2"/>
    <path d="M141.535,30.279c-3.472,2.311-3.055,7.643-1.905,8.251a6.61,6.61,0,0,1,.812.564c2.795,2.074,10.709,8.545,17.45,6.211,4.881-1.679,9.1-4.34,11.566-7.237a8.492,8.492,0,0,0,2.288-5.016c.181-4.6-1.42-14.2-5.444-15.816-2.785-1.116-9.188-1.375-12.84-1.443" fill="none" stroke="#010101" stroke-linecap="round" stroke-linejoin="round" stroke-width="2"/>
    <path d="M169.458,38.068c5.14,3.72,8.207,11.623.485,17.236a31.648,31.648,0,0,1-4.464,2.762c-6,2.943-9.222,1.173-13.2,1.421-4.858.293-14.485-5.31-14.485-5.31a6.8,6.8,0,0,1-1.962-1.555c-1.589-1.815-2.446-4.645-1.759-8.207.553-2.852,3.8-4.475,6.37-5.321" fill="none" stroke="#010101" stroke-linecap="round" stroke-linejoin="round" stroke-width="2"/>
    <path d="M135.831,52.622c-2.187.744-4.881,1.961-6.031,3.686-2.1,3.145-1.5,5.016,1.995,8.86a10.628,10.628,0,0,0,1.252,1.173c4.272,3.438,13.121,6.7,17.98,7.372a11.745,11.745,0,0,0,4.441-.316c4.3-1.037,8.5-3.99,9.65-6.639.834-1.95.676-5.671.361-8.692" fill="none" stroke="#010101" stroke-linecap="round" stroke-linejoin="round" stroke-width="2"/>
    <path d="M155.468,73.4a6.32,6.32,0,0,1-.236,6.4c-3.236,4.746-6.471,4.34-10.247,2.852-1.184-.462-2.931-1.149-4.859-1.961-4.227-1.792-9.255-4.2-10.766-6.279-2.2-3.021-2.784-5.512-1.4-6.989.653-.7,2.9-.981,5.084-1.082" fill="none" stroke="#010101" stroke-linecap="round" stroke-linejoin="round" stroke-width="2"/>
  </g>
  <g>
    <path d="M76.812,123.133c.936,11.555.981,36.04.925,47.809-.011,4.046-.034,6.583-.034,6.583-2.9.44-10.766,1.443-17.991,2.345V116.561c8.477,1.218,16.638,2.48,16.638,2.48C76.519,120.09,76.677,121.476,76.812,123.133Z" fill="#eda0aa"/>
    <path d="M226.775,110.192c2.165,1.815,4.994,8.849-7.474,11.228S208.31,123,205.019,123.8a116.4,116.4,0,0,1-12.705,2.154c-.969,0-8.725,2.513-13.031,3.934-2.57-3.044-6.493-5.659-9.064-11.307a27.491,27.491,0,0,0-3.009-6.155c6.594-.259,20.392-.868,21.6-1.206a149.488,149.488,0,0,1,16.549-1.59C207.285,109.741,224.633,108.388,226.775,110.192Z" fill="#fbd0a3"/>
    <path d="M217.712,132.3c3.968.564,24.834-1.916,23.921,7.373s-15.985,8.274-19.389,8.037c-3.393-.214-13.494,1.026-16.887.35-2.875-.575-12.254,1.578-17.98,1.206-.891-4.329-4.509-11.307-5.941-15.715a9.775,9.775,0,0,0-1.319-2.6c6.076.215,17.642.654,18.555.9C199.912,132.185,213.744,131.735,217.712,132.3Z" fill="#fbd0a3"/>
    <path d="M184.818,157.38a16.25,16.25,0,0,1,.473,4.509c-.1,4.386-6.47,7.914-11.633,7.542a8.416,8.416,0,0,1-1.3-.169c-5.321-1.139-12-2.277-19.152-7.271a41.093,41.093,0,0,1-8.4-7.35c-2.66-3.314-3.754-6.809-1.341-10.1,4.3-5.895,14.722.688,17,3.168,0,0,4.96,1.973,9.887,4.351,2.491,4.961,5.67,5.986,9.04,7A5.248,5.248,0,0,0,184.818,157.38Z" fill="#fbd0a3"/>
    <path d="M173.658,169.431c.135,2.739-.124,6.223-2.086,7.981-3.506,3.179-8.612,1.928-8.612,1.928-5.671-1.353-20.517-8.15-22.783-11.893s-1.589-9.864.564-11.679a6.99,6.99,0,0,1,4.069-1.127,41.093,41.093,0,0,0,8.4,7.35c7.147,4.994,13.831,6.132,19.152,7.271A8.416,8.416,0,0,0,173.658,169.431Z" fill="#fbd0a3"/>
    <path d="M99.369,122.513c2.2-3.258,5.953-6.312,12.355-7.553,16.324-3.178,29.468-9.525,36.716-9.987,6-.372,13.528-.44,18.77,7.451a27.491,27.491,0,0,1,3.009,6.155c2.571,5.648,6.494,8.263,9.064,11.307.293.349.575.7.834,1.059a9.775,9.775,0,0,1,1.319,2.6c1.432,4.408,5.05,11.386,5.941,15.715a7.518,7.518,0,0,1,.18,2.085,10.7,10.7,0,0,1-2.739,6.031,5.248,5.248,0,0,1-5.423,1.68c-3.37-1.015-6.549-2.04-9.04-7-4.927-2.378-9.887-4.351-9.887-4.351-2.277-2.48-12.7-9.063-17-3.168-2.413,3.292-1.319,6.787,1.341,10.1a6.99,6.99,0,0,0-4.069,1.127c-2.153,1.815-2.841,7.936-.564,11.679s17.112,10.54,22.783,11.893c0,0-20.855,4.994-41.27-3.619-7.215-3.043-11.7-6.718-14.5-10.19-8.252.9-20.122,3.336-29.456,5.411.056-11.769.011-36.254-.925-47.809C83.745,122.93,92.053,122.694,99.369,122.513Z" fill="#fbd0a3"/>
    <path d="M76.812,123.133c-.135-1.657-.293-3.043-.462-4.092,0,0-8.161-1.262-16.639-2.48v51.624c6-1.186,12.018-2.2,18.041-3.146C77.761,152.284,77.611,133,76.812,123.133Z" fill="#eda0aa"/>
    <path d="M59.711,168.185V179.87c7.226-.9,15.1-1.906,17.992-2.345,0,0,.023-2.537.034-6.583.008-1.721.014-3.719.015-5.9C71.729,165.983,65.71,167,59.711,168.185Z" fill="#ea5d71"/>
    <path d="M226.775,110.192c2.165,1.815,4.994,8.849-7.474,11.228S208.31,123,205.019,123.8a116.4,116.4,0,0,1-12.705,2.154c-.969,0-8.725,2.513-13.031,3.934-2.57-3.044-6.493-5.659-9.064-11.307a27.491,27.491,0,0,0-3.009-6.155c6.594-.259,20.392-.868,21.6-1.206a149.488,149.488,0,0,1,16.549-1.59C207.285,109.741,224.633,108.388,226.775,110.192Z" fill="#fbd0a3"/>
    <path d="M217.712,132.3c3.968.564,24.834-1.916,23.921,7.373s-15.985,8.274-19.389,8.037c-3.393-.214-13.494,1.026-16.887.35-2.875-.575-12.254,1.578-17.98,1.206-.891-4.329-4.509-11.307-5.941-15.715a9.775,9.775,0,0,0-1.319-2.6c6.076.215,17.642.654,18.555.9C199.912,132.185,213.744,131.735,217.712,132.3Z" fill="#fbd0a3"/>
    <path d="M184.818,157.38a16.25,16.25,0,0,1,.473,4.509c-.1,4.386-6.47,7.914-11.633,7.542a8.416,8.416,0,0,1-1.3-.169c-5.321-1.139-12-2.277-19.152-7.271a41.093,41.093,0,0,1-8.4-7.35c-2.66-3.314-3.754-6.809-1.341-10.1,4.3-5.895,14.722.688,17,3.168,0,0,4.96,1.973,9.887,4.351,2.491,4.961,5.67,5.986,9.04,7A5.248,5.248,0,0,0,184.818,157.38Z" fill="#fbd0a3"/>
    <path d="M173.658,169.431c.135,2.739-.124,6.223-2.086,7.981-3.506,3.179-8.612,1.928-8.612,1.928-5.671-1.353-20.517-8.15-22.783-11.893s-1.589-9.864.564-11.679a6.99,6.99,0,0,1,4.069-1.127,41.093,41.093,0,0,0,8.4,7.35c7.147,4.994,13.831,6.132,19.152,7.271A8.416,8.416,0,0,0,173.658,169.431Z" fill="#fbd0a3"/>
    <path d="M77.747,159.861c.012,4.237,0,8.075-.01,11.081,9.18-2.041,20.807-4.426,29.038-5.362a25.59,25.59,0,0,1-3.445-7.642C95.385,161.518,86.608,160.163,77.747,159.861Z" fill="#f7b985"/>
    <path d="M136.874,171.077a140.7,140.7,0,0,0,18.278,9.4,59.5,59.5,0,0,0,7.808-1.137c-5.671-1.353-20.517-8.151-22.783-11.893a8.82,8.82,0,0,1-.8-1.77C137.032,167.846,135.3,170.288,136.874,171.077Z" fill="#f7b985"/>
    <path d="M169.408,146.229c-7.438-1.944-10.244-8.521-14.246-13.9-4.534-.452-9.068,2.245-13.6,1.987q6.93,4.489,13.86,9.85a20.3,20.3,0,0,1,5.049,3.543s4.622,1.84,9.373,4.107A27.546,27.546,0,0,0,169.408,146.229Z" fill="#f7b985"/>
    <path d="M187.376,149.264c-.89-4.329-4.509-11.307-5.94-15.715a9.8,9.8,0,0,0-1.319-2.6c-.259-.36-.541-.71-.834-1.059-2.571-3.044-6.494-5.659-9.064-11.307a27.491,27.491,0,0,0-3.009-6.155c-5.243-7.891-12.773-7.823-18.77-7.451-7.248.462-20.392,6.809-36.716,9.987-6.4,1.241-10.156,4.3-12.355,7.553-7.315.181-15.624.417-22.557.62.7,8.6.9,24.374.935,36.728,8.861.3,17.638,1.657,25.583-1.923a15.236,15.236,0,0,1-.274-1.516,15.236,15.236,0,0,0,.274,1.516c.285-.128.571-.248.853-.389-.282.141-.568.261-.853.389a25.59,25.59,0,0,0,3.445,7.642c.138-.016.282-.035.418-.049,2.8,3.472,7.282,7.147,14.5,10.19,12.69,5.354,25.547,5.449,33.462,4.756a140.7,140.7,0,0,1-18.278-9.4c-1.577-.789.158-3.231,2.5-5.4-1.234-3.668-.472-8.358,1.368-9.909a6.99,6.99,0,0,1,4.069-1.127c-2.66-3.314-3.754-6.809-1.341-10.1,2.73-3.747,7.934-2.453,11.951-.376q-6.93-5.374-13.86-9.85a9.163,9.163,0,0,1-4.686-1.566,9.163,9.163,0,0,0,4.686,1.566c-.811-.525-1.621-1.06-2.431-1.566.81.506,1.62,1.041,2.431,1.566,4.534.258,9.068-2.439,13.6-1.987a26.6,26.6,0,0,0-2.506-2.961,26.6,26.6,0,0,1,2.506,2.961,9.1,9.1,0,0,1,2,.421,9.1,9.1,0,0,0-2-.421c4,5.38,6.808,11.957,14.246,13.9a18.315,18.315,0,0,0-.97-3.334,18.315,18.315,0,0,1,.97,3.334c.054.015.1.034.158.047-.055-.013-.1-.032-.158-.047a27.546,27.546,0,0,1,.434,5.586l.513.244c2.491,4.961,5.67,5.986,9.04,7a5.249,5.249,0,0,0,5.423-1.68,10.7,10.7,0,0,0,2.739-6.031A7.484,7.484,0,0,0,187.376,149.264Z" fill="#fbd0a3"/>
    <path d="M76.812,123.133c6.933-.2,15.241-.439,22.557-.62" fill="none" stroke="#010101" stroke-linecap="round" stroke-linejoin="round" stroke-width="2"/>
    <path d="M77.737,170.942c9.334-2.075,21.2-4.51,29.456-5.411" fill="none" stroke="#010101" stroke-linecap="round" stroke-linejoin="round" stroke-width="2"/>
    <path d="M102.65,153.491s-.564,5.693,4.543,12.04c2.8,3.472,7.282,7.147,14.5,10.19,20.415,8.613,41.27,3.619,41.27,3.619s5.106,1.251,8.612-1.928c1.962-1.758,2.221-5.242,2.086-7.981" fill="none" stroke="#010101" stroke-linecap="round" stroke-linejoin="round" stroke-width="2"/>
    <path d="M59.712,116.561c8.477,1.218,16.638,2.48,16.638,2.48.169,1.049.327,2.435.462,4.092.936,11.555.981,36.04.925,47.809-.011,4.046-.034,6.583-.034,6.583-2.9.44-10.766,1.443-17.991,2.345" fill="none" stroke="#010101" stroke-linecap="round" stroke-linejoin="round" stroke-width="2"/>
    <path d="M127.585,128.1c1.477,2.277,6.685,4.881,9.864,4.994s18.939.112,18.939.112c4.531,9.176,11.678,12.13,11.678,12.13a31.393,31.393,0,0,0,2.289,6.718c2.491,4.961,5.67,5.986,9.04,7a5.248,5.248,0,0,0,5.423-1.68,10.7,10.7,0,0,0,2.739-6.031,7.518,7.518,0,0,0-.18-2.085c-.891-4.329-4.509-11.307-5.941-15.715a9.775,9.775,0,0,0-1.319-2.6c-.259-.36-.541-.71-.834-1.059-2.57-3.044-6.493-5.659-9.064-11.307a27.491,27.491,0,0,0-3.009-6.155c-5.242-7.891-12.773-7.823-18.77-7.451-7.248.462-20.392,6.809-36.716,9.987-6.4,1.241-10.156,4.3-12.355,7.553A18.81,18.81,0,0,0,96.3,133.1" fill="none" stroke="#010101" stroke-linecap="round" stroke-linejoin="round" stroke-width="2"/>
    <path d="M127.811,133.549a47.5,47.5,0,0,0,9.075,3.743" fill="none" stroke="#010101" stroke-linecap="round" stroke-linejoin="round" stroke-width="2"/>
    <path d="M170.355,152.059c-4.927-2.378-9.887-4.351-9.887-4.351-2.277-2.48-12.7-9.063-17-3.168-2.413,3.292-1.319,6.787,1.341,10.1a41.093,41.093,0,0,0,8.4,7.35c7.147,4.994,13.831,6.132,19.152,7.271a8.416,8.416,0,0,0,1.3.169c5.163.372,11.532-3.156,11.633-7.542a16.25,16.25,0,0,0-.473-4.509" fill="none" stroke="#010101" stroke-linecap="round" stroke-linejoin="round" stroke-width="2"/>
    <path d="M144.81,154.641a6.99,6.99,0,0,0-4.069,1.127c-2.153,1.815-2.841,7.936-.564,11.679s17.112,10.54,22.783,11.893" fill="none" stroke="#010101" stroke-linecap="round" stroke-linejoin="round" stroke-width="2"/>
    <path d="M167.21,112.424c6.594-.259,20.392-.868,21.6-1.206a149.488,149.488,0,0,1,16.549-1.59c1.928.113,19.276-1.24,21.418.564,2.165,1.815,4.994,8.849-7.474,11.228S208.31,123,205.019,123.8a116.4,116.4,0,0,1-12.705,2.154c-.969,0-8.725,2.513-13.031,3.934" fill="none" stroke="#010101" stroke-linecap="round" stroke-linejoin="round" stroke-width="2"/>
    <path d="M180.117,130.945c6.076.215,17.642.654,18.555.9,1.24.338,15.072-.112,19.04.451s24.834-1.916,23.921,7.373-15.985,8.274-19.389,8.037c-3.393-.214-13.494,1.026-16.887.35-2.875-.575-12.254,1.578-17.98,1.206" fill="none" stroke="#010101" stroke-linecap="round" stroke-linejoin="round" stroke-width="2"/>
  </g>
</svg>
